<?xml version="1.0" standalone="no"?>
<!DOCTYPE svg PUBLIC "-//W3C//DTD SVG 20010904//EN"
 "http://www.w3.org/TR/2001/REC-SVG-20010904/DTD/svg10.dtd">
<svg version="1.0" xmlns="http://www.w3.org/2000/svg"
 width="1200.000000pt" height="1200.000000pt" viewBox="0 0 1200.000000 1200.000000"
 preserveAspectRatio="xMidYMid meet">
<metadata>
Created by potrace 1.14, written by Peter Selinger 2001-2017
</metadata>
<g transform="translate(0.000000,1200.000000) scale(0.100000,-0.100000)"
fill="#000000" stroke="none">
<path d="M5737 10194 c-3 -3 -29 -7 -59 -9 -96 -7 -162 -14 -203 -20 -22 -4
-56 -9 -75 -11 -105 -14 -162 -23 -190 -30 -28 -8 -61 -13 -105 -17 -16 -1
-33 -5 -36 -10 -7 -9 -43 -18 -84 -20 -16 -1 -33 -6 -36 -11 -4 -5 -17 -10
-30 -12 -25 -3 -60 -11 -69 -14 -3 -1 -8 -2 -12 -1 -5 0 -8 -3 -8 -9 0 -5 -6
-7 -14 -4 -8 3 -17 1 -20 -5 -4 -6 -13 -8 -21 -4 -8 3 -15 0 -15 -5 0 -6 -9
-9 -20 -7 -11 2 -20 -1 -20 -7 0 -6 -3 -8 -7 -5 -3 4 -12 2 -20 -4 -7 -6 -13
-8 -13 -5 0 4 -9 2 -21 -4 -11 -7 -33 -14 -47 -16 -15 -3 -30 -11 -34 -17 -4
-7 -8 -8 -8 -3 0 5 -7 3 -15 -4 -8 -6 -18 -9 -23 -6 -6 3 -15 -1 -22 -9 -6 -7
-18 -11 -26 -8 -8 3 -14 0 -14 -7 0 -7 -7 -10 -15 -6 -8 3 -15 1 -15 -4 0 -6
-9 -10 -20 -10 -11 0 -20 -4 -20 -10 0 -5 -7 -7 -15 -4 -8 4 -15 2 -15 -3 0
-9 -69 -39 -82 -35 -5 1 -8 -3 -8 -9 0 -5 -5 -7 -10 -4 -6 3 -13 0 -16 -9 -3
-8 -12 -12 -20 -9 -8 3 -14 -1 -14 -8 0 -7 -3 -9 -7 -6 -3 4 -39 -11 -78 -33
-40 -21 -76 -36 -79 -33 -3 4 -6 1 -6 -5 0 -7 -7 -12 -15 -12 -8 0 -15 -4 -15
-10 0 -5 -7 -10 -16 -10 -9 0 -12 -5 -8 -12 4 -6 3 -8 -4 -4 -13 8 -62 -13
-62 -27 0 -6 -3 -8 -6 -4 -4 3 -26 -7 -50 -24 -24 -16 -44 -28 -44 -25 0 3 -8
-1 -17 -9 -10 -8 -22 -15 -26 -15 -4 1 -14 -5 -21 -12 -22 -21 -53 -41 -61
-39 -3 1 -14 -6 -23 -16 -9 -10 -38 -32 -64 -48 -27 -17 -48 -33 -48 -37 0 -5
-7 -8 -15 -8 -8 0 -15 -3 -15 -8 0 -4 -16 -16 -35 -26 -19 -10 -32 -23 -29
-27 3 -5 -3 -9 -13 -9 -10 0 -25 -8 -34 -17 -8 -10 -30 -29 -48 -43 -17 -14
-42 -33 -53 -42 -12 -10 -25 -18 -30 -18 -5 0 -7 -4 -3 -9 3 -5 -4 -12 -15
-16 -11 -3 -20 -13 -20 -21 0 -8 -6 -13 -12 -12 -7 2 -12 -3 -10 -10 1 -8 -2
-11 -7 -8 -5 4 -37 -21 -70 -53 -34 -33 -61 -57 -61 -53 0 3 -6 -3 -14 -13 -8
-11 -12 -23 -10 -27 3 -4 -3 -5 -12 -1 -11 4 -15 2 -11 -4 3 -5 -5 -16 -18
-23 -14 -7 -25 -17 -25 -21 0 -12 -48 -58 -54 -51 -3 3 -6 1 -6 -5 0 -6 -16
-27 -35 -47 -19 -21 -35 -39 -35 -41 0 -2 -20 -24 -45 -49 -25 -26 -45 -49
-45 -51 0 -3 -11 -18 -24 -33 -63 -70 -74 -86 -69 -95 3 -6 1 -7 -5 -3 -7 4
-12 3 -12 -2 0 -4 -9 -18 -20 -30 -12 -12 -18 -22 -15 -22 3 0 -8 -14 -25 -31
-16 -18 -30 -37 -30 -43 0 -6 -12 -22 -25 -35 -14 -12 -23 -27 -20 -31 3 -4
-2 -10 -10 -14 -8 -3 -15 -12 -15 -21 0 -8 -4 -15 -8 -15 -5 0 -14 -10 -21
-22 -14 -28 -27 -49 -66 -108 -36 -57 -81 -135 -100 -177 -9 -18 -20 -33 -26
-33 -6 0 -9 -6 -7 -12 3 -7 -1 -19 -9 -26 -7 -8 -11 -18 -8 -23 4 -5 3 -9 -2
-9 -4 0 -21 -29 -38 -65 -16 -36 -33 -65 -37 -65 -4 0 -5 -7 -2 -15 4 -8 1
-15 -5 -15 -6 0 -10 -3 -9 -7 1 -5 -6 -23 -15 -41 -10 -18 -15 -37 -12 -41 3
-5 0 -11 -6 -13 -11 -4 -15 -13 -62 -140 -13 -37 -28 -64 -32 -60 -5 4 -6 2
-2 -3 3 -6 -3 -34 -13 -62 -10 -28 -15 -54 -12 -57 3 -3 0 -6 -7 -6 -8 0 -11
-8 -8 -20 3 -10 1 -20 -5 -22 -5 -2 -11 -12 -13 -23 -2 -11 -4 -20 -5 -20 -1
0 -3 -8 -5 -17 -2 -9 -9 -34 -16 -55 -7 -21 -12 -42 -11 -46 1 -4 -3 -17 -9
-29 -6 -11 -12 -30 -14 -42 -2 -11 -6 -32 -10 -46 -3 -14 -8 -34 -10 -45 -17
-77 -23 -100 -25 -100 -1 0 -4 -13 -6 -30 -4 -37 -12 -80 -14 -80 -2 0 -13
-78 -14 -107 0 -16 -4 -28 -7 -28 -3 0 -5 -12 -4 -27 1 -16 -1 -35 -6 -43 -6
-14 -18 -121 -22 -217 -1 -23 -5 -45 -9 -48 -4 -4 -3 -15 2 -25 5 -10 7 -20 3
-23 -3 -4 -7 -27 -8 -52 -2 -32 0 -43 8 -38 8 5 8 2 0 -8 -15 -18 -15 -314 0
-343 7 -14 6 -16 -3 -11 -9 5 -10 2 -6 -12 4 -11 8 -59 10 -106 2 -47 7 -91
10 -96 4 -6 7 -32 8 -58 0 -26 3 -52 6 -58 6 -9 11 -54 15 -130 1 -16 5 -32 9
-35 3 -3 8 -28 11 -55 2 -28 7 -57 10 -65 4 -8 9 -26 11 -40 3 -14 5 -25 6
-25 1 0 3 -16 6 -35 2 -19 7 -42 11 -50 9 -22 15 -52 17 -80 0 -14 5 -28 9
-31 5 -3 9 -12 10 -20 2 -8 7 -20 11 -28 6 -9 5 -12 -2 -7 -6 4 -5 -5 3 -20 8
-15 12 -31 9 -36 -3 -4 0 -8 7 -8 6 0 9 -8 6 -20 -3 -11 -1 -20 5 -20 5 0 7
-4 3 -9 -3 -5 -1 -12 5 -16 5 -3 10 -17 10 -31 0 -13 4 -24 8 -24 4 0 9 -12
10 -27 1 -15 7 -30 13 -34 7 -4 9 -11 5 -17 -3 -6 -2 -13 4 -17 6 -4 8 -11 5
-16 -4 -5 -1 -9 4 -9 6 0 11 -11 11 -24 0 -14 5 -28 10 -31 6 -3 10 -15 10
-26 0 -10 5 -19 11 -19 5 0 7 -4 4 -10 -3 -5 -1 -10 5 -10 6 0 9 -4 6 -9 -3
-5 1 -21 8 -37 8 -16 22 -47 31 -69 36 -82 140 -290 148 -296 5 -4 6 -12 3
-18 -4 -6 -3 -11 3 -11 6 0 13 -11 17 -25 3 -14 10 -23 14 -20 8 5 34 -52 31
-68 0 -4 6 -10 14 -13 8 -3 12 -10 9 -15 -3 -5 0 -9 5 -9 6 0 11 -7 11 -15 0
-8 5 -15 10 -15 6 0 10 -6 10 -13 0 -7 9 -23 19 -34 11 -12 17 -23 14 -27 -3
-3 2 -8 11 -12 9 -3 14 -10 11 -14 -2 -4 7 -20 20 -34 14 -15 25 -34 25 -42 0
-7 4 -14 10 -14 5 0 17 -15 26 -33 9 -17 23 -36 30 -40 8 -4 14 -15 14 -22 0
-8 3 -15 8 -15 4 0 23 -23 42 -50 19 -27 38 -50 43 -50 4 0 7 -7 7 -15 0 -8 4
-15 8 -15 5 0 15 -11 22 -25 7 -14 19 -25 27 -25 7 0 12 -4 11 -9 -2 -5 10
-24 27 -42 16 -19 29 -37 27 -41 -1 -5 5 -8 13 -8 8 0 15 -4 15 -9 0 -5 40
-51 90 -102 49 -51 90 -96 90 -101 0 -4 7 -8 16 -8 8 0 12 -5 9 -10 -3 -6 -2
-10 3 -10 5 0 49 -38 98 -84 48 -47 91 -83 95 -80 4 2 10 -5 14 -16 3 -11 11
-20 16 -20 8 0 39 -25 83 -65 6 -6 27 -22 46 -35 19 -13 46 -35 60 -47 14 -13
33 -26 43 -29 9 -3 17 -10 17 -15 0 -5 6 -9 14 -9 8 0 16 -7 20 -15 3 -8 11
-15 18 -15 8 0 20 -9 28 -19 7 -11 17 -18 21 -15 4 2 13 -1 21 -8 26 -24 78
-58 103 -68 14 -5 25 -14 25 -20 0 -5 5 -10 10 -10 6 0 36 -16 66 -35 30 -19
59 -35 64 -35 6 0 10 -4 10 -10 0 -5 7 -7 15 -4 8 4 15 1 15 -6 0 -7 7 -10 16
-6 8 3 12 2 9 -3 -3 -5 4 -12 15 -16 11 -3 20 -11 20 -16 0 -6 4 -8 9 -4 5 3
17 -2 25 -11 9 -8 16 -12 16 -9 0 4 11 0 25 -9 14 -9 25 -13 25 -9 0 4 7 -2
15 -13 8 -10 15 -16 15 -12 0 4 21 -4 46 -18 26 -14 43 -20 39 -12 -5 7 3 3
17 -10 13 -12 28 -19 31 -15 4 3 7 1 7 -5 0 -6 7 -9 15 -6 8 4 15 1 15 -6 0
-6 5 -8 10 -5 6 3 10 1 10 -4 0 -6 3 -10 8 -9 4 1 17 -3 30 -10 12 -7 26 -10
31 -8 5 3 12 -1 15 -10 3 -8 10 -13 16 -9 5 3 24 -2 42 -12 18 -9 39 -16 46
-15 6 2 12 -2 12 -8 0 -6 4 -9 9 -5 5 3 12 1 16 -4 3 -6 12 -8 20 -4 8 3 15 0
15 -6 0 -6 11 -11 24 -11 14 0 28 -4 31 -10 3 -5 17 -10 31 -10 13 0 24 -6 24
-12 0 -9 4 -8 10 2 5 8 10 10 10 3 0 -6 24 -17 53 -23 28 -7 58 -17 65 -23 6
-5 12 -6 12 -2 0 4 6 2 14 -4 7 -6 20 -9 28 -6 9 4 22 -1 30 -9 11 -11 18 -12
27 -3 8 8 11 8 11 -1 0 -6 7 -9 15 -6 8 4 15 1 15 -7 0 -7 2 -10 5 -7 4 3 25
1 48 -4 23 -6 51 -12 62 -14 11 -1 31 -5 45 -9 14 -3 41 -8 60 -11 45 -8 65
-12 65 -14 0 -1 38 -6 108 -14 21 -2 41 -7 44 -10 3 -3 13 0 21 7 13 10 14 9
7 -2 -6 -11 -4 -13 8 -8 10 3 17 3 17 -1 0 -4 19 -8 43 -9 112 -4 237 -12 244
-16 5 -2 90 -5 191 -5 137 0 181 2 175 11 -5 9 -3 9 8 1 14 -11 64 -12 75 -1
4 4 15 2 25 -3 10 -6 20 -6 23 -2 3 5 25 8 48 7 24 -1 49 3 56 9 10 7 16 6 22
-3 5 -9 10 -10 14 -3 6 10 28 13 94 12 13 0 21 3 19 8 -3 4 14 8 36 9 83 3
137 8 137 13 0 3 8 6 18 7 9 1 31 5 47 8 17 4 44 8 60 10 17 2 30 4 30 5 0 2
20 7 60 15 17 3 34 10 39 15 5 5 15 6 23 3 8 -3 19 0 24 8 7 12 9 12 9 0 0
-11 3 -11 15 -1 8 7 15 10 15 7 0 -4 18 0 40 8 22 8 41 14 43 14 1 0 9 2 17 5
8 2 29 8 45 12 41 10 45 11 48 14 1 1 11 3 22 5 11 2 21 8 23 13 2 6 12 8 22
5 12 -3 20 0 20 8 0 7 3 10 6 7 3 -3 29 2 57 12 28 10 56 16 61 13 5 -4 6 -1
2 5 -4 8 0 12 12 12 10 0 22 3 26 7 3 4 17 8 29 10 12 2 24 8 25 13 2 6 15 10
28 10 13 0 24 4 24 10 0 5 7 7 15 4 8 -4 15 -2 15 3 0 5 17 15 38 22 20 8 71
30 112 50 41 19 78 34 83 33 4 -1 7 3 7 10 0 6 3 8 7 5 3 -4 12 1 20 11 9 10
12 11 7 2 -6 -11 -2 -10 13 3 11 9 24 17 29 17 6 0 16 6 23 13 6 6 17 12 24
12 7 1 11 7 9 14 -1 7 2 10 7 7 12 -8 61 14 61 27 0 6 3 8 6 4 4 -3 25 6 48
21 22 16 74 47 114 71 39 24 72 47 72 51 0 4 11 11 25 14 14 4 25 11 25 16 0
6 5 10 11 10 7 0 32 16 55 36 24 19 44 32 44 28 0 -4 14 7 30 24 17 18 30 29
30 25 0 -4 13 5 28 20 16 15 31 24 35 20 4 -3 7 1 7 11 0 9 4 15 9 12 11 -7
53 39 44 49 -5 4 -2 5 4 1 14 -8 17 -5 103 75 33 30 60 53 60 51 0 -3 22 18
49 46 28 27 52 47 55 44 6 -5 10 14 7 31 -1 5 3 6 9 2 6 -3 27 12 48 36 20 23
69 74 107 114 39 41 69 79 66 86 -2 6 1 9 7 5 6 -4 16 3 23 15 6 12 23 33 37
46 14 12 21 23 17 23 -4 0 2 8 13 19 12 10 22 24 22 30 0 7 4 10 9 6 5 -3 12
4 16 15 3 11 11 20 16 20 6 0 8 4 5 9 -4 5 -2 11 3 13 11 4 81 95 81 106 0 4
12 18 25 31 14 12 23 27 20 31 -3 4 2 10 10 14 8 3 15 10 15 16 0 6 9 20 20
32 10 12 17 25 14 29 -2 4 5 13 16 19 11 6 18 15 15 21 -4 5 -1 9 4 9 6 0 11
7 11 15 0 8 5 15 11 15 5 0 8 4 4 9 -3 6 3 14 12 20 10 6 14 11 10 11 -5 0 1
12 12 26 11 15 18 30 15 35 -3 5 -1 9 4 9 5 0 15 12 23 27 7 16 24 44 36 64
12 20 19 39 16 43 -3 3 2 8 11 12 9 3 14 10 11 14 -3 4 2 13 10 20 8 7 15 18
15 25 0 7 14 38 30 69 17 31 30 58 30 61 0 3 6 18 14 34 9 16 12 31 9 35 -4 3
-1 6 6 6 7 0 9 5 6 10 -3 6 -2 10 3 10 6 0 13 12 18 27 10 37 9 34 24 68 7 17
14 32 15 35 0 3 6 15 13 28 7 12 11 22 8 22 -3 0 1 12 9 27 8 15 12 30 10 34
-3 4 1 9 9 12 8 3 12 16 11 31 -2 14 1 26 6 26 5 0 8 3 8 8 -3 14 14 72 20 72
4 0 7 8 8 18 2 24 25 106 32 112 7 6 12 27 14 55 0 11 5 26 10 32 5 7 11 27
12 45 4 39 20 101 29 117 4 6 2 11 -4 11 -7 0 -5 7 4 16 9 8 14 20 10 25 -3 6
0 17 8 26 11 14 11 16 -1 8 -11 -6 -12 -5 -5 6 11 18 14 33 17 91 1 27 6 48
11 48 4 0 6 9 3 20 -3 11 -2 20 2 20 4 0 7 15 8 33 1 17 4 52 8 77 4 25 8 59
9 75 1 17 5 35 9 42 4 6 1 14 -5 16 -7 3 -8 6 -3 6 6 1 10 21 9 46 -1 25 3 45
8 45 6 0 5 6 -2 15 -7 8 -8 15 -3 15 15 0 15 421 0 439 -7 9 -8 12 -1 8 15 -8
16 53 2 70 -7 9 -7 13 2 13 9 0 9 4 3 13 -6 6 -9 23 -8 37 1 14 -1 35 -6 47
-5 14 -4 23 4 27 8 3 9 7 2 13 -5 4 -11 15 -11 24 -3 47 -15 148 -20 174 -3
17 -7 44 -9 60 -2 17 -6 41 -10 55 -3 14 -6 40 -7 58 -1 17 -5 32 -9 32 -4 0
-6 14 -5 30 1 17 -1 30 -4 30 -4 0 -7 6 -8 13 -5 55 -16 96 -25 90 -5 -3 -7
-2 -4 4 3 5 1 27 -4 49 -11 43 -20 83 -23 99 -1 6 -5 16 -9 23 -5 6 -6 16 -2
21 3 5 1 12 -4 15 -5 3 -15 30 -21 58 -7 29 -17 59 -23 66 -5 7 -7 15 -4 19 4
3 3 11 -2 17 -11 14 -36 88 -33 99 1 4 -3 7 -8 7 -6 0 -10 6 -9 13 1 6 -6 30
-15 51 -10 22 -19 51 -20 65 -2 14 -8 27 -15 29 -6 2 -9 8 -5 13 3 5 0 9 -5 9
-6 0 -10 3 -9 8 2 8 -11 39 -46 112 -14 29 -26 60 -26 67 0 7 -4 13 -10 13 -5
0 -10 9 -10 20 0 11 -5 20 -11 20 -5 0 -7 5 -4 10 3 6 0 12 -7 15 -8 3 -14 15
-15 26 -1 12 -9 29 -17 38 -8 9 -16 23 -18 31 -2 8 -11 23 -21 32 -11 9 -16
22 -12 27 3 6 1 11 -4 11 -6 0 -11 7 -11 15 0 8 -4 15 -10 15 -5 0 -10 9 -10
20 0 11 -3 20 -8 20 -4 0 -18 20 -31 45 -13 25 -28 45 -32 45 -5 0 -9 6 -9 14
0 8 -7 22 -16 30 -8 9 -13 16 -9 16 7 0 -12 23 -37 48 -10 9 -18 24 -18 34 0
10 -4 18 -10 18 -5 0 -10 5 -10 11 0 11 -60 92 -72 97 -5 2 -8 8 -8 13 0 5 -8
18 -17 30 -17 20 -25 30 -75 92 -13 16 -38 44 -55 64 -18 19 -33 38 -33 43 0
4 -7 11 -16 14 -9 4 -14 9 -11 12 3 4 -10 21 -29 39 -18 18 -34 36 -34 41 0 5
-16 20 -34 34 -19 14 -33 27 -32 30 1 3 -24 31 -56 62 -32 32 -58 54 -58 50 0
-4 -9 6 -19 21 -10 16 -22 27 -26 25 -3 -2 -13 8 -20 22 -8 14 -14 22 -15 18
0 -5 -9 0 -19 10 -30 27 -45 41 -56 51 -10 10 -40 36 -83 73 -11 9 -23 14 -26
11 -3 -4 -6 1 -6 10 0 9 -6 17 -13 17 -11 0 -56 35 -108 85 -9 8 -21 15 -27
15 -7 0 -12 5 -12 10 0 6 -7 10 -15 10 -8 0 -15 5 -15 10 0 6 -4 10 -10 10 -9
0 -35 19 -65 48 -8 6 -20 12 -27 12 -7 0 -21 8 -30 18 -26 27 -43 39 -66 46
-12 4 -20 12 -17 17 3 5 -1 6 -9 3 -9 -3 -16 -2 -16 3 0 5 -19 20 -42 33 -24
13 -46 28 -50 34 -4 6 -8 7 -8 2 0 -5 -9 -1 -20 9 -11 10 -20 14 -20 9 0 -5
-4 -4 -8 1 -9 13 -38 31 -84 52 -21 10 -38 21 -38 25 0 5 -6 8 -12 8 -16 0
-102 42 -106 53 -2 4 -9 7 -16 7 -7 0 -32 10 -57 22 -24 12 -47 21 -51 20 -5
-1 -8 2 -8 6 0 5 -6 9 -12 9 -7 0 -38 12 -69 26 -31 14 -60 23 -63 20 -3 -4
-6 -1 -6 5 0 7 -9 12 -19 12 -11 0 -22 4 -25 9 -3 5 -26 14 -51 20 -25 6 -43
16 -40 21 3 5 0 7 -8 5 -7 -3 -30 1 -50 10 -20 8 -37 12 -37 9 0 -4 -6 -1 -14
5 -8 7 -25 14 -37 17 -29 6 -39 9 -59 17 -13 4 -63 18 -80 21 -3 1 -11 5 -17
9 -7 5 -18 5 -23 2 -6 -4 -17 -2 -24 4 -7 6 -27 11 -44 13 -18 1 -32 5 -32 8
0 4 -6 7 -12 7 -7 0 -26 4 -43 7 -55 13 -80 17 -102 18 -13 1 -23 6 -23 10 0
4 -13 6 -30 4 -16 -2 -30 0 -30 4 0 5 -8 7 -17 5 -10 -1 -22 0 -27 3 -5 3 -26
7 -45 8 -20 1 -49 5 -66 9 -44 9 -103 16 -161 19 -28 2 -55 5 -60 8 -5 3 -26
4 -46 4 -21 -1 -38 2 -38 7 0 4 -8 3 -18 -2 -13 -7 -23 -6 -30 1 -9 9 -12 9
-12 0 0 -7 -5 -12 -11 -12 -5 0 -8 4 -5 9 3 4 -93 8 -214 9 -160 0 -220 -3
-220 -11 0 -8 -3 -8 -8 -2 -8 12 -27 16 -35 9z"/>
</g>
</svg>
